# xmcd
#
# Track frame offsets: 
#        150
#        18591
#        26663
#        51893
#        78504
#        92713
#        104660
#        119181
#        136761
#        147509
#
# Disc length: 2351 seconds
#
# Revision: 0
# Processed by: cddbd v1.5.2PL0 Copyright (c) Steve Scherf et al.
# Submitted via: ExactAudioCopy v1.0b4
#
DISCID=90092d0a
DTITLE=Frankfurt City Blues Band - Doobee Doobee Doo (LP)
DYEAR=1983
DGENRE=Blues
TTITLE0=Eight Days A Week
TTITLE1=My Heart Goes DoobeeDoobeedoo
TTITLE2=Goin' Down
TTITLE3=Stormy Monday Blues
TTITLE4=Oh Baby (You Hurt Me So)
TTITLE5=Grau In Grau
TTITLE6=Demut
TTITLE7=New York (New York State Of Mind)
TTITLE8=Wuzzebebbes
TTITLE9=Baby, What You Want Me To Do
EXTD=
EXTT0=
EXTT1=
EXTT2=
EXTT3=
EXTT4=
EXTT5=
EXTT6=
EXTT7=
EXTT8=
EXTT9=
PLAYORDER=
